<svg width="111" height="30" viewBox="0 0 111 30" fill="none" xmlns="http://www.w3.org/2000/svg">
<path fill-rule="evenodd" clip-rule="evenodd" d="M27.8333 15C27.8333 22.0877 22.0877 27.8333 15 27.8333C7.91234 27.8333 2.16666 22.0877 2.16666 15C2.16666 7.9123 7.91234 2.16666 15 2.16666C22.0877 2.16666 27.8333 7.9123 27.8333 15ZM30 15C30 23.2843 23.2843 30 15 30C6.71573 30 0 23.2843 0 15C0 6.71573 6.71573 0 15 0C23.2843 0 30 6.71573 30 15ZM23.2759 8.2759C23.2759 9.1329 22.5812 9.8276 21.7242 9.8276C20.8672 9.8276 20.1725 9.1329 20.1725 8.2759C20.1725 7.4189 20.8672 6.72418 21.7242 6.72418C22.5812 6.72418 23.2759 7.4189 23.2759 8.2759ZM10.4879 16.209C11.1556 18.7009 13.717 20.1797 16.2089 19.512C18.7008 18.8443 20.1796 16.2829 19.5119 13.791C18.8442 11.2991 16.2828 9.8203 13.7909 10.488C11.299 11.1557 9.82015 13.7171 10.4879 16.209ZM8.39503 16.7698C9.37244 20.4175 13.1219 22.5823 16.7696 21.6049C20.4174 20.6274 22.5821 16.878 21.6047 13.2302C20.6273 9.5825 16.8779 7.4177 13.2301 8.3952C9.58236 9.3726 7.41762 13.122 8.39503 16.7698Z" fill="url(#paint0_linear_52_8)"/>
<path d="M36.3047 17.3672C36.7474 17.6172 37.1953 17.8438 37.6484 18.0469C38.1068 18.2448 38.5807 18.4141 39.0703 18.5547C39.5599 18.6901 40.0729 18.7943 40.6094 18.8672C41.151 18.9401 41.7266 18.9766 42.3359 18.9766C43.0703 18.9766 43.6953 18.9297 44.2109 18.8359C44.7266 18.737 45.1458 18.6042 45.4688 18.4375C45.7969 18.2656 46.0339 18.0625 46.1797 17.8281C46.3307 17.5938 46.4062 17.3385 46.4062 17.0625C46.4062 16.6198 46.2214 16.2708 45.8516 16.0156C45.4818 15.7552 44.9115 15.625 44.1406 15.625C43.8021 15.625 43.4453 15.6484 43.0703 15.6953C42.6953 15.737 42.3151 15.7839 41.9297 15.8359C41.5495 15.888 41.1719 15.9375 40.7969 15.9844C40.4271 16.026 40.0781 16.0469 39.75 16.0469C39.2031 16.0469 38.6771 15.9766 38.1719 15.8359C37.6719 15.6953 37.2266 15.4844 36.8359 15.2031C36.4505 14.9219 36.1432 14.5703 35.9141 14.1484C35.6849 13.7266 35.5703 13.2344 35.5703 12.6719C35.5703 12.3385 35.6146 12.0078 35.7031 11.6797C35.7969 11.3516 35.9427 11.0391 36.1406 10.7422C36.3438 10.4401 36.6042 10.1615 36.9219 9.90625C37.2396 9.64583 37.6224 9.42188 38.0703 9.23438C38.5234 9.04688 39.0443 8.90104 39.6328 8.79688C40.2266 8.6875 40.901 8.63281 41.6562 8.63281C42.2031 8.63281 42.7526 8.66406 43.3047 8.72656C43.8568 8.78385 44.3932 8.86719 44.9141 8.97656C45.4401 9.08594 45.9453 9.21875 46.4297 9.375C46.9141 9.52604 47.3646 9.69531 47.7812 9.88281L46.6953 11.8828C46.3516 11.7318 45.9818 11.5938 45.5859 11.4688C45.1901 11.3385 44.776 11.2266 44.3438 11.1328C43.9115 11.0391 43.4635 10.9661 43 10.9141C42.5417 10.8568 42.0729 10.8281 41.5938 10.8281C40.9115 10.8281 40.349 10.8776 39.9062 10.9766C39.4688 11.0755 39.1198 11.2031 38.8594 11.3594C38.599 11.5104 38.4167 11.6823 38.3125 11.875C38.2135 12.0625 38.1641 12.25 38.1641 12.4375C38.1641 12.8021 38.3281 13.1016 38.6562 13.3359C38.9844 13.5651 39.4844 13.6797 40.1562 13.6797C40.4271 13.6797 40.737 13.6615 41.0859 13.625C41.4401 13.5833 41.8099 13.5391 42.1953 13.4922C42.5859 13.4453 42.9818 13.4036 43.3828 13.3672C43.7891 13.3255 44.1823 13.3047 44.5625 13.3047C45.2812 13.3047 45.9167 13.3854 46.4688 13.5469C47.026 13.7083 47.4922 13.9401 47.8672 14.2422C48.2422 14.5391 48.526 14.901 48.7188 15.3281C48.9115 15.75 49.0078 16.224 49.0078 16.75C49.0078 17.4531 48.8438 18.0807 48.5156 18.6328C48.1927 19.1797 47.7292 19.6432 47.125 20.0234C46.526 20.3984 45.8021 20.6849 44.9531 20.8828C44.1042 21.0755 43.1589 21.1719 42.1172 21.1719C41.4297 21.1719 40.7578 21.1276 40.1016 21.0391C39.4453 20.9557 38.8151 20.8359 38.2109 20.6797C37.612 20.5182 37.0391 20.3281 36.4922 20.1094C35.9505 19.8854 35.4479 19.6406 34.9844 19.375L36.3047 17.3672ZM52.8359 13.5156H50.6094V11.7812H52.8359V8.91406H55.1484V11.7812H57.375V13.5156H55.1484V21H52.8359V13.5156ZM59.4297 11.7812H61.7422V13.1094C62.2526 12.7292 62.7917 12.401 63.3594 12.125C63.9271 11.849 64.4922 11.638 65.0547 11.4922L65.7344 13.6094C64.8438 13.6979 64.0599 13.8984 63.3828 14.2109C62.7109 14.5182 62.1641 14.9531 61.7422 15.5156V21H59.4297V11.7812ZM68.6797 10.5234C68.4505 10.5234 68.2422 10.4922 68.0547 10.4297C67.8724 10.362 67.7161 10.2734 67.5859 10.1641C67.4557 10.0495 67.3542 9.91927 67.2812 9.77344C67.2135 9.6224 67.1797 9.46354 67.1797 9.29688C67.1797 9.125 67.2135 8.96615 67.2812 8.82031C67.3542 8.66927 67.4557 8.53906 67.5859 8.42969C67.7161 8.32031 67.8724 8.23438 68.0547 8.17188C68.2422 8.10417 68.4505 8.07031 68.6797 8.07031C68.9141 8.07031 69.1224 8.10417 69.3047 8.17188C69.4922 8.23438 69.651 8.32031 69.7812 8.42969C69.9115 8.53906 70.0104 8.66927 70.0781 8.82031C70.151 8.96615 70.1875 9.125 70.1875 9.29688C70.1875 9.46354 70.151 9.6224 70.0781 9.77344C70.0104 9.91927 69.9115 10.0495 69.7812 10.1641C69.651 10.2734 69.4922 10.362 69.3047 10.4297C69.1224 10.4922 68.9141 10.5234 68.6797 10.5234ZM67.5234 11.7812H69.8359V21H67.5234V11.7812ZM72.8047 11.7812H75.1172V12.5625C75.7318 12.2135 76.3177 11.9688 76.875 11.8281C77.4375 11.6875 77.987 11.6172 78.5234 11.6172C79.2266 11.6172 79.8776 11.7214 80.4766 11.9297C81.0755 12.1328 81.5938 12.4375 82.0312 12.8438C82.4688 13.25 82.8099 13.7578 83.0547 14.3672C83.3047 14.9714 83.4297 15.6719 83.4297 16.4688V21H81.125V16.8438C81.125 16.3385 81.0521 15.888 80.9062 15.4922C80.7656 15.0911 80.5599 14.7552 80.2891 14.4844C80.0234 14.2083 79.6979 14 79.3125 13.8594C78.9323 13.7135 78.5052 13.6406 78.0312 13.6406C77.7812 13.6406 77.5234 13.6667 77.2578 13.7188C76.9974 13.7708 76.7396 13.8464 76.4844 13.9453C76.2344 14.0391 75.9922 14.1589 75.7578 14.3047C75.5234 14.4453 75.3099 14.6068 75.1172 14.7891V21H72.8047V11.7812ZM87.7188 22.5625C88.0104 22.6667 88.3073 22.7526 88.6094 22.8203C88.9115 22.8932 89.2031 22.9505 89.4844 22.9922C89.7708 23.0391 90.0443 23.0703 90.3047 23.0859C90.5651 23.1068 90.7969 23.1172 91 23.1172C91.6146 23.1172 92.1484 23.0417 92.6016 22.8906C93.0599 22.7448 93.4401 22.5469 93.7422 22.2969C94.0495 22.0469 94.2786 21.7552 94.4297 21.4219C94.5807 21.0938 94.6562 20.7448 94.6562 20.375V19.9766C94.4583 20.112 94.2266 20.2422 93.9609 20.3672C93.6953 20.4922 93.4036 20.6016 93.0859 20.6953C92.7682 20.7891 92.4297 20.8646 92.0703 20.9219C91.7161 20.9792 91.349 21.0078 90.9688 21.0078C90.2135 21.0078 89.5156 20.8958 88.875 20.6719C88.2344 20.4427 87.6797 20.125 87.2109 19.7188C86.7422 19.3073 86.375 18.8151 86.1094 18.2422C85.849 17.6693 85.7188 17.0339 85.7188 16.3359C85.7188 15.6224 85.8568 14.9766 86.1328 14.3984C86.4089 13.8151 86.7891 13.3177 87.2734 12.9062C87.763 12.4948 88.3411 12.1771 89.0078 11.9531C89.6745 11.7292 90.3984 11.6172 91.1797 11.6172C91.513 11.6172 91.8438 11.638 92.1719 11.6797C92.5 11.7214 92.8125 11.7786 93.1094 11.8516C93.4115 11.9245 93.6927 12.013 93.9531 12.1172C94.2188 12.2161 94.4531 12.3255 94.6562 12.4453V11.7812H96.9688V19.9453C96.9688 20.7839 96.8411 21.526 96.5859 22.1719C96.3307 22.8177 95.9557 23.3594 95.4609 23.7969C94.9714 24.2396 94.362 24.5729 93.6328 24.7969C92.9036 25.026 92.0677 25.1406 91.125 25.1406C90.7865 25.1406 90.4349 25.125 90.0703 25.0938C89.7057 25.0677 89.3385 25.026 88.9688 24.9688C88.6042 24.9167 88.2422 24.8516 87.8828 24.7734C87.5286 24.7005 87.1875 24.6146 86.8594 24.5156L87.7188 22.5625ZM88.1484 16.3125C88.1484 16.6823 88.2214 17.0312 88.3672 17.3594C88.5182 17.6823 88.7318 17.9661 89.0078 18.2109C89.2839 18.4505 89.6172 18.6406 90.0078 18.7812C90.3984 18.9167 90.8385 18.9844 91.3281 18.9844C91.6458 18.9844 91.9609 18.9557 92.2734 18.8984C92.5911 18.8359 92.8932 18.75 93.1797 18.6406C93.4714 18.5312 93.7422 18.3984 93.9922 18.2422C94.2474 18.0859 94.4688 17.9115 94.6562 17.7188V14.6797C94.4219 14.4922 94.1745 14.3333 93.9141 14.2031C93.6536 14.0729 93.388 13.9661 93.1172 13.8828C92.8464 13.7995 92.5729 13.7396 92.2969 13.7031C92.0208 13.6615 91.7526 13.6406 91.4922 13.6406C90.9609 13.6406 90.487 13.7109 90.0703 13.8516C89.6589 13.9922 89.3099 14.1849 89.0234 14.4297C88.7422 14.6693 88.526 14.9505 88.375 15.2734C88.224 15.5964 88.1484 15.9427 88.1484 16.3125ZM99.9688 18.1719C100.594 18.5469 101.281 18.8229 102.031 19C102.781 19.1771 103.549 19.2656 104.336 19.2656C104.867 19.2656 105.31 19.2292 105.664 19.1562C106.018 19.0833 106.302 18.9896 106.516 18.875C106.729 18.7604 106.88 18.6302 106.969 18.4844C107.057 18.3385 107.102 18.1901 107.102 18.0391C107.102 17.8203 107.005 17.6328 106.812 17.4766C106.625 17.3203 106.312 17.2422 105.875 17.2422C105.672 17.2422 105.453 17.2552 105.219 17.2812C104.984 17.3073 104.737 17.3359 104.477 17.3672C104.221 17.3932 103.953 17.4193 103.672 17.4453C103.396 17.4714 103.115 17.4844 102.828 17.4844C102.203 17.4844 101.669 17.4167 101.227 17.2812C100.789 17.1458 100.432 16.9609 100.156 16.7266C99.8802 16.4922 99.6797 16.2161 99.5547 15.8984C99.4297 15.5755 99.3672 15.2292 99.3672 14.8594C99.3672 14.3906 99.4766 13.9583 99.6953 13.5625C99.9141 13.1667 100.227 12.8255 100.633 12.5391C101.039 12.2474 101.529 12.0208 102.102 11.8594C102.68 11.6979 103.323 11.6172 104.031 11.6172C104.401 11.6172 104.786 11.6406 105.188 11.6875C105.594 11.7292 105.992 11.7865 106.383 11.8594C106.773 11.9323 107.148 12.0182 107.508 12.1172C107.867 12.2109 108.185 12.3125 108.461 12.4219L107.734 14.2188C107.146 14 106.557 13.8281 105.969 13.7031C105.385 13.5729 104.784 13.5078 104.164 13.5078C103.732 13.5078 103.365 13.5417 103.062 13.6094C102.766 13.6719 102.523 13.7578 102.336 13.8672C102.148 13.9714 102.01 14.0938 101.922 14.2344C101.839 14.3698 101.797 14.513 101.797 14.6641C101.797 14.7734 101.818 14.8724 101.859 14.9609C101.906 15.0495 101.979 15.1276 102.078 15.1953C102.182 15.2578 102.315 15.3073 102.477 15.3438C102.643 15.375 102.846 15.3906 103.086 15.3906C103.305 15.3906 103.536 15.3776 103.781 15.3516C104.026 15.3255 104.281 15.2995 104.547 15.2734C104.812 15.2422 105.086 15.2135 105.367 15.1875C105.654 15.1615 105.945 15.1484 106.242 15.1484C106.794 15.1484 107.276 15.2135 107.688 15.3438C108.104 15.474 108.448 15.6562 108.719 15.8906C108.99 16.125 109.193 16.401 109.328 16.7188C109.464 17.0365 109.531 17.3828 109.531 17.7578C109.531 18.2422 109.419 18.6927 109.195 19.1094C108.971 19.526 108.638 19.888 108.195 20.1953C107.753 20.4974 107.201 20.7344 106.539 20.9062C105.883 21.0781 105.122 21.1641 104.258 21.1641C103.727 21.1641 103.214 21.1302 102.719 21.0625C102.224 21 101.753 20.9141 101.305 20.8047C100.857 20.6901 100.435 20.5573 100.039 20.4062C99.6484 20.2552 99.2917 20.0938 98.9688 19.9219L99.9688 18.1719Z" fill="white"/>
<defs>
<linearGradient id="paint0_linear_52_8" x1="19.5" y1="2.23518e-08" x2="12" y2="30" gradientUnits="userSpaceOnUse">
<stop stop-color="#949494"/>
<stop offset="0.489121" stop-color="#0B773C"/>
<stop offset="1" stop-color="#09F43D"/>
</linearGradient>
</defs>
</svg>
