<svg width="37" height="37" viewBox="0 0 37 37" fill="none" xmlns="http://www.w3.org/2000/svg">
<path fill-rule="evenodd" clip-rule="evenodd" d="M28.25 2.375C28.8713 2.375 29.375 2.87868 29.375 3.5V7.625H33.5C34.1213 7.625 34.625 8.12868 34.625 8.75C34.625 9.37132 34.1213 9.875 33.5 9.875H29.375V14C29.375 14.6213 28.8713 15.125 28.25 15.125C27.6287 15.125 27.125 14.6213 27.125 14V9.875H23C22.3787 9.875 21.875 9.37132 21.875 8.75C21.875 8.12868 22.3787 7.625 23 7.625H27.125V3.5C27.125 2.87868 27.6287 2.375 28.25 2.375Z" fill="white"/>
<path fill-rule="evenodd" clip-rule="evenodd" d="M18.5 2.375H18.4139C14.9513 2.37498 12.2378 2.37497 10.1206 2.65962C7.95345 2.95098 6.24342 3.55899 4.9012 4.9012C3.55899 6.24342 2.95098 7.95345 2.65962 10.1206C2.37497 12.2378 2.37498 14.9513 2.375 18.4139V18.5861C2.37498 22.0487 2.37497 24.7622 2.65962 26.8794C2.95098 29.0465 3.55899 30.7566 4.9012 32.0988C6.24342 33.441 7.95345 34.049 10.1206 34.3404C12.2378 34.625 14.9513 34.625 18.4139 34.625H18.5861C22.0487 34.625 24.7622 34.625 26.8794 34.3404C29.0465 34.049 30.7566 33.441 32.0988 32.0988C33.441 30.7566 34.049 29.0465 34.3404 26.8794C34.625 24.7622 34.625 22.0487 34.625 18.5861V18.5C34.625 17.8787 34.1213 17.375 33.5 17.375C32.8787 17.375 32.375 17.8787 32.375 18.5C32.375 22.0673 32.3726 24.6297 32.1104 26.5796C32.1001 26.6566 32.0894 26.7323 32.0783 26.8068L27.9173 23.0619C25.9682 21.3076 23.0655 21.133 20.92 22.6407L20.4727 22.9551C19.7273 23.479 18.7131 23.3912 18.0688 22.7469L11.6342 16.3123C9.93111 14.6092 7.1992 14.5182 5.38657 16.1042L4.62646 16.7693C4.63329 14.0809 4.67186 12.0395 4.88956 10.4204C5.14737 8.50276 5.63771 7.34668 6.49219 6.49219C7.34668 5.63771 8.50276 5.14737 10.4204 4.88956C12.3703 4.62739 14.9327 4.625 18.5 4.625C19.1213 4.625 19.625 4.12132 19.625 3.5C19.625 2.87868 19.1213 2.375 18.5 2.375ZM4.88956 26.5796C5.14737 28.4972 5.63771 29.6533 6.49219 30.5078C7.34668 31.3623 8.50276 31.8526 10.4204 32.1104C12.3703 32.3726 14.9327 32.375 18.5 32.375C22.0673 32.375 24.6297 32.3726 26.5796 32.1104C28.4972 31.8526 29.6533 31.3623 30.5078 30.5078C30.8731 30.1425 31.1719 29.7221 31.4143 29.2106C31.356 29.1749 31.3001 29.1334 31.2474 29.086L26.4121 24.7343C25.2426 23.6817 23.501 23.5769 22.2138 24.4816L21.7665 24.796C20.1264 25.9485 17.8952 25.7553 16.4778 24.3379L10.0432 17.9033C9.17772 17.0378 7.78937 16.9915 6.86819 17.7976L4.62557 19.7598C4.62944 22.6826 4.65933 24.8672 4.88956 26.5796Z" fill="white"/>
</svg>
