<svg width="21" height="21" viewBox="0 0 21 21" fill="none" xmlns="http://www.w3.org/2000/svg">
<path fill-rule="evenodd" clip-rule="evenodd" d="M8.60505 4.34001C8.59434 4.34953 8.58361 4.35908 8.57284 4.36865L5.22799 7.34185C4.60387 7.89659 4.08649 8.35646 3.73125 8.77392C3.35789 9.21268 3.09204 9.68505 3.09204 10.2696C3.09204 10.8541 3.35789 11.3265 3.73124 11.7652C4.08648 12.1827 4.60386 12.6426 5.22799 13.1973L8.57284 16.1705C8.58361 16.1801 8.59435 16.1896 8.60505 16.1992C8.87541 16.4395 9.12773 16.6639 9.34572 16.8078C9.55978 16.9492 9.94904 17.1545 10.3851 16.9586C10.8211 16.7628 10.9263 16.3355 10.9629 16.0816C11.0001 15.8231 11.0001 15.4854 11 15.1236C11 15.1093 11 15.0949 11 15.0805V13.7734C12.2096 13.8568 13.4353 14.178 14.5075 14.7005C15.7683 15.3148 16.7752 16.1859 17.3216 17.2268C17.4553 17.4814 17.7454 17.6119 18.0246 17.5431C18.3038 17.4742 18.5 17.2238 18.5 16.9362C18.5 13.0021 17.3489 10.4405 15.7029 8.86562C14.2682 7.49291 12.5197 6.92964 11 6.81176V5.45862C11 5.44422 11 5.42985 11 5.41552C11.0001 5.05375 11.0001 4.7161 10.9629 4.45756C10.9263 4.20366 10.8211 3.77634 10.3851 3.58052C9.94904 3.3847 9.55978 3.59 9.34572 3.73133C9.12773 3.87526 8.87541 4.09962 8.60505 4.34001ZM9.74748 5.00038C9.65326 5.08113 9.54076 5.18072 9.4033 5.30291L6.09305 8.24535C5.42548 8.83875 4.97504 9.24108 4.68323 9.584C4.40299 9.91334 4.34204 10.1057 4.34204 10.2696C4.34204 10.4335 4.40298 10.6258 4.68322 10.9552C4.97504 11.2981 5.42547 11.7004 6.09305 12.2938L9.4033 15.2363C9.54076 15.3584 9.65326 15.458 9.74748 15.5388C9.74973 15.4147 9.75004 15.2645 9.75004 15.0805V13.1267C9.75004 12.7815 10.0299 12.5017 10.375 12.5017C11.9688 12.5017 13.625 12.88 15.055 13.5768C15.8207 13.9499 16.5335 14.4205 17.1384 14.9836C16.8311 12.4444 15.923 10.8062 14.8388 9.76879C13.4887 8.47706 11.783 8.03744 10.375 8.03744C10.0299 8.03744 9.75004 7.75762 9.75004 7.41244V5.45862C9.75004 5.2747 9.74973 5.12445 9.74748 5.00038Z" fill="#2DC059"/>
</svg>
