<svg width="25" height="25" viewBox="0 0 25 25" fill="none" xmlns="http://www.w3.org/2000/svg">
<path d="M9.5 5.75C9.08579 5.75 8.75 6.08579 8.75 6.5C8.75 6.91421 9.08579 7.25 9.5 7.25H15.5C15.9142 7.25 16.25 6.91421 16.25 6.5C16.25 6.08579 15.9142 5.75 15.5 5.75H9.5Z" fill="#877EFF"/>
<path fill-rule="evenodd" clip-rule="evenodd" d="M12.4425 1.75C10.3699 1.74999 8.73715 1.74997 7.46128 1.92337C6.15121 2.10141 5.10609 2.47468 4.28484 3.30484C3.46469 4.13387 3.09692 5.18702 2.9213 6.50741C2.74997 7.79551 2.74999 9.44462 2.75 11.5411V16.639C2.74999 18.1466 2.74998 19.3402 2.84601 20.2388C2.94091 21.1269 3.14447 21.928 3.72584 22.4638C4.19226 22.8937 4.78211 23.1646 5.41165 23.2367C6.19912 23.3268 6.93439 22.9508 7.65868 22.4377C8.39163 21.9185 9.28075 21.1321 10.4025 20.1399L10.439 20.1076C10.9591 19.6476 11.3112 19.3372 11.605 19.1224C11.8889 18.9148 12.0623 18.8397 12.2084 18.8103C12.4009 18.7715 12.5991 18.7715 12.7916 18.8103C12.9377 18.8397 13.1111 18.9148 13.395 19.1224C13.6888 19.3372 14.0409 19.6476 14.561 20.1076L14.5975 20.14C15.7193 21.1321 16.6084 21.9186 17.3413 22.4377C18.0656 22.9508 18.8009 23.3268 19.5883 23.2367C20.2179 23.1646 20.8077 22.8937 21.2742 22.4638C21.8555 21.928 22.0591 21.1269 22.154 20.2388C22.25 19.3402 22.25 18.1466 22.25 16.639V11.541C22.25 9.44462 22.25 7.7955 22.0787 6.50741C21.9031 5.18702 21.5353 4.13387 20.7152 3.30484C19.8939 2.47468 18.8488 2.10141 17.5387 1.92337C16.2628 1.74997 14.6301 1.74999 12.5575 1.75H12.4425ZM5.3512 4.35977C5.84797 3.85762 6.52251 3.56474 7.66328 3.40971C8.82645 3.25163 10.3572 3.25 12.5 3.25C14.6427 3.25 16.1735 3.25163 17.3367 3.40971C18.4775 3.56474 19.152 3.85762 19.6488 4.35977C20.1467 4.86303 20.4379 5.54819 20.5918 6.70518C20.7484 7.88292 20.75 9.43223 20.75 11.5975V16.5909C20.75 18.1572 20.749 19.2702 20.6625 20.0794C20.5739 20.9088 20.4104 21.22 20.2576 21.3608C20.0238 21.5763 19.7298 21.7107 19.4178 21.7464C19.2182 21.7692 18.8835 21.692 18.2083 21.2137C17.5497 20.7472 16.7211 20.0157 15.5547 18.984L15.5286 18.9609C15.0413 18.5299 14.6372 18.1725 14.2804 17.9116C13.9074 17.6388 13.5312 17.4292 13.0878 17.3398C12.6998 17.2617 12.3002 17.2617 11.9122 17.3398C11.4688 17.4292 11.0926 17.6388 10.7196 17.9116C10.3628 18.1725 9.95871 18.5299 9.47145 18.9609L9.44527 18.984C8.27887 20.0157 7.45026 20.7472 6.79165 21.2137C6.11645 21.692 5.78182 21.7692 5.58218 21.7464C5.27019 21.7107 4.97617 21.5763 4.74237 21.3608C4.58963 21.22 4.42614 20.9088 4.33752 20.0794C4.25104 19.2702 4.25 18.1572 4.25 16.5909V11.5975C4.25 9.43223 4.25156 7.88292 4.4082 6.70518C4.56209 5.54819 4.85333 4.86303 5.3512 4.35977Z" fill="#2DC059"/>
</svg>
