<svg width="21" height="21" viewBox="0 0 21 21" fill="none" xmlns="http://www.w3.org/2000/svg">
<path d="M7.95816 10.4583C7.95816 10.9186 7.58507 11.2917 7.12483 11.2917C6.66459 11.2917 6.2915 10.9186 6.2915 10.4583C6.2915 9.99809 6.66459 9.625 7.12483 9.625C7.58507 9.625 7.95816 9.99809 7.95816 10.4583Z" fill="#2DC059"/>
<path d="M11.2917 10.4583C11.2917 10.9186 10.9186 11.2917 10.4583 11.2917C9.99809 11.2917 9.625 10.9186 9.625 10.4583C9.625 9.99809 9.99809 9.625 10.4583 9.625C10.9186 9.625 11.2917 9.99809 11.2917 10.4583Z" fill="#2DC059"/>
<path d="M14.6252 10.4583C14.6252 10.9186 14.2521 11.2917 13.7919 11.2917C13.3316 11.2917 12.9585 10.9186 12.9585 10.4583C12.9585 9.99809 13.3316 9.625 13.7919 9.625C14.2521 9.625 14.6252 9.99809 14.6252 10.4583Z" fill="#2DC059"/>
<path fill-rule="evenodd" clip-rule="evenodd" d="M19.4167 10.4583C19.4167 5.51078 15.4059 1.5 10.4583 1.5C5.51078 1.5 1.5 5.51078 1.5 10.4583C1.5 11.8903 1.83642 13.2454 2.4351 14.4474C2.52444 14.6267 2.5434 14.8099 2.50217 14.964L2.00583 16.819C1.66606 18.0889 2.82781 19.2506 4.09767 18.9108L5.9527 18.4145C6.10678 18.3733 6.28992 18.3922 6.46929 18.4816C7.67127 19.0802 9.02641 19.4167 10.4583 19.4167C15.4059 19.4167 19.4167 15.4059 19.4167 10.4583ZM10.4583 2.75C14.7155 2.75 18.1667 6.20114 18.1667 10.4583C18.1667 14.7155 14.7155 18.1667 10.4583 18.1667C9.22412 18.1667 8.05934 17.8771 7.02659 17.3627C6.61209 17.1562 6.11644 17.0767 5.62961 17.207L3.77458 17.7033C3.43388 17.7945 3.12219 17.4828 3.21335 17.1421L3.70969 15.2871C3.83995 14.8002 3.76045 14.3046 3.554 13.8901C3.0396 12.8573 2.75 11.6925 2.75 10.4583C2.75 6.20114 6.20114 2.75 10.4583 2.75Z" fill="#2DC059"/>
</svg>
