<svg width="21" height="21" viewBox="0 0 21 21" fill="none" xmlns="http://www.w3.org/2000/svg">
<path fill-rule="evenodd" clip-rule="evenodd" d="M4.76411 6.9599C5.10852 6.93694 5.40634 7.19753 5.4293 7.54194L5.81258 13.2913C5.88747 14.4145 5.94082 15.196 6.05796 15.784C6.17159 16.3544 6.3302 16.6563 6.55804 16.8694C6.78589 17.0826 7.09768 17.2208 7.67435 17.2962C8.26885 17.374 9.05219 17.3752 10.1779 17.3752H10.8224C11.9481 17.3752 12.7314 17.374 13.3259 17.2962C13.9026 17.2208 14.2144 17.0826 14.4422 16.8694C14.6701 16.6563 14.8287 16.3544 14.9423 15.784C15.0594 15.196 15.1128 14.4145 15.1877 13.2913L15.571 7.54194C15.5939 7.19753 15.8917 6.93694 16.2361 6.9599C16.5806 6.98286 16.8412 7.28068 16.8182 7.62509L16.432 13.4183C16.3607 14.4872 16.3032 15.3507 16.1682 16.0282C16.0279 16.7326 15.7892 17.321 15.2962 17.7823C14.8032 18.2435 14.2002 18.4425 13.488 18.5357C12.803 18.6253 11.9376 18.6252 10.8663 18.6252H10.134C9.06262 18.6252 8.19726 18.6253 7.51222 18.5357C6.80001 18.4425 6.19706 18.2435 5.70406 17.7823C5.21107 17.321 4.97238 16.7326 4.83205 16.0282C4.69707 15.3507 4.63952 14.4872 4.56828 13.4183L4.18207 7.62509C4.15911 7.28068 4.4197 6.98286 4.76411 6.9599Z" fill="#FF5050"/>
<path fill-rule="evenodd" clip-rule="evenodd" d="M9.12953 2.37503L9.09122 2.37502C8.91089 2.3749 8.75379 2.3748 8.60544 2.39849C8.01935 2.49208 7.51219 2.85762 7.23807 3.38403C7.16868 3.51728 7.11909 3.66636 7.06218 3.83747L7.05008 3.87382L6.96917 4.11654C6.95335 4.16401 6.94894 4.17709 6.9451 4.1877C6.79917 4.59113 6.42082 4.86383 5.99194 4.8747C5.98066 4.87498 5.96685 4.87503 5.91682 4.87503H3.41675C3.07157 4.87503 2.79175 5.15485 2.79175 5.50003C2.79175 5.84521 3.07157 6.12503 3.41675 6.12503H5.92395H5.9379H15.0624H15.0763H17.5835C17.9286 6.12503 18.2085 5.84521 18.2085 5.50003C18.2085 5.15485 17.9286 4.87503 17.5835 4.87503H15.0835C15.0334 4.87503 15.0196 4.87498 15.0083 4.8747C14.5795 4.86383 14.2011 4.59111 14.0552 4.18768C14.0514 4.17715 14.0469 4.16378 14.0311 4.11654L13.9502 3.87382L13.9381 3.83745C13.8812 3.66634 13.8316 3.51727 13.7622 3.38403C13.4881 2.85762 12.9809 2.49208 12.3948 2.39849C12.2465 2.3748 12.0894 2.3749 11.9091 2.37502L11.8707 2.37503H9.12953ZM8.12056 4.6129C8.08783 4.70337 8.0498 4.79085 8.00687 4.87503H12.9934C12.9505 4.79085 12.9124 4.70338 12.8797 4.61292L12.8475 4.51846L12.7643 4.2691C12.6884 4.04117 12.6709 3.99469 12.6535 3.96137C12.5622 3.7859 12.3931 3.66405 12.1977 3.63285C12.1606 3.62693 12.111 3.62503 11.8707 3.62503H9.12953C8.88927 3.62503 8.83965 3.62693 8.80254 3.63285C8.60718 3.66405 8.43813 3.7859 8.34675 3.96137C8.3294 3.99469 8.31191 4.04118 8.23593 4.2691L8.15276 4.51861C8.14024 4.55619 8.1305 4.58543 8.12056 4.6129Z" fill="#FF5050"/>
</svg>
