<svg width="98" height="78" viewBox="0 0 98 78" fill="none" xmlns="http://www.w3.org/2000/svg">
<path d="M17.5168 24.5904H17.8119C20.566 24.3936 22.6316 22.033 22.5332 19.2789C22.3365 16.5248 19.9759 14.4592 17.2218 14.5576C14.4677 14.6559 12.4021 17.1149 12.5004 19.869C12.5988 22.5248 14.8611 24.5904 17.5168 24.5904ZM15.1562 17.5084C15.648 16.9182 16.4349 16.5248 17.2218 16.5248H17.4185C19.0906 16.5248 20.4677 17.9018 20.4677 19.574C20.4677 21.2461 19.0906 22.6231 17.4185 22.6231C15.7463 22.6231 14.3693 21.2461 14.3693 19.574C14.3693 18.7871 14.6644 18.0986 15.1562 17.5084Z" fill="#5C5C7B"/>
<path d="M84.7961 19.0818L58.5338 17.6064L58.3371 14.6555C58.042 9.04898 53.2223 4.72111 47.5174 5.01619L14.1731 6.88504C8.56656 7.18012 4.23869 12.0982 4.53377 17.7047L6.40262 51.1473V51.9342C7.09115 57.049 11.419 60.885 16.5338 60.885H17.1239L38.4682 59.7047V60.2949C38.1731 65.9014 42.4026 70.8195 48.1075 71.1146L81.5502 73.0818H82.1403C87.5502 73.0818 92.0748 68.8523 92.3698 63.4424L94.3371 29.9998C94.7305 24.2949 90.4026 19.4752 84.7961 19.0818ZM8.56656 11.6064C10.042 9.93422 12.1075 8.95062 14.2715 8.85225L47.7141 6.9834C52.2387 6.68832 56.1731 10.2293 56.4682 14.7539L56.6649 17.508L51.4518 17.2129C45.8452 16.9178 40.9272 21.1473 40.6321 26.8523L40.042 36.1965L30.6977 46.7211C30.501 47.0162 30.1075 47.1146 29.7141 47.2129C29.3207 47.2129 29.0256 47.1146 28.7305 46.8195L21.0584 39.9342C19.6813 38.6555 17.6157 38.8523 16.337 40.2293L8.36983 49.1801L6.59934 17.7047C6.40262 15.4424 7.18951 13.2785 8.56656 11.6064ZM17.1239 58.8195C12.8944 59.0162 9.15672 56.0654 8.46819 51.8359L17.7141 41.508C17.9108 41.2129 18.3043 41.1146 18.6977 41.0162C19.0911 41.0162 19.3862 41.1146 19.6813 41.4096L27.3534 48.2949C28.042 48.885 28.9272 49.1801 29.8125 49.1801C30.6977 49.1801 31.4846 48.6883 32.0748 48.0982L39.7469 39.4424L38.6649 57.7375L17.1239 58.8195ZM92.3698 29.8031L90.4026 63.2457C90.1075 67.7703 86.1731 71.3113 81.6485 71.0162L48.2059 69.049C43.6813 68.7539 40.1403 64.8195 40.4354 60.2949L42.4026 26.8523C42.6977 22.5244 46.2387 19.0818 50.6649 19.0818H51.1567L84.5993 21.049C89.2223 21.3441 92.6649 25.2785 92.3698 29.8031Z" fill="#5C5C7B"/>
<path d="M78.4027 41.9018L61.7797 30.9838C59.7141 29.6068 56.96 30.1969 55.6813 32.2625C55.2879 32.951 54.9928 33.6395 54.9928 34.4264L53.8125 54.1969C53.7141 56.6559 55.4846 58.7215 57.9436 58.9182H58.2387C58.9273 58.9182 59.6158 58.7215 60.2059 58.4264L77.9109 49.574C80.0748 48.492 80.96 45.8363 79.8781 43.6723C79.4846 42.9838 78.9928 42.3936 78.4027 41.9018ZM77.0256 47.8035L59.3207 56.6559C58.9273 56.8527 58.5338 56.951 58.042 56.951C57.6486 56.951 57.1568 56.7543 56.8617 56.5576C56.1732 56.0658 55.6814 55.2789 55.7797 54.3936L56.96 34.6232C57.0584 33.7379 57.5502 32.951 58.3371 32.5576C59.124 32.1641 60.0092 32.2625 60.7961 32.6559L77.2223 43.574C78.4027 44.3609 78.6977 45.8363 77.9109 46.9182C77.7141 47.3117 77.4191 47.6068 77.0256 47.8035Z" fill="#5C5C7B"/>
</svg>
