<svg width="21" height="21" viewBox="0 0 21 21" fill="none" xmlns="http://www.w3.org/2000/svg">
<path fill-rule="evenodd" clip-rule="evenodd" d="M19.4582 6.3335C19.4582 6.67867 19.1784 6.9585 18.8332 6.9585H2.1665C1.82132 6.9585 1.5415 6.67867 1.5415 6.3335C1.5415 5.98832 1.82132 5.7085 2.1665 5.7085H18.8332C19.1784 5.7085 19.4582 5.98832 19.4582 6.3335Z" fill="#5C5C7B"/>
<path fill-rule="evenodd" clip-rule="evenodd" d="M16.9582 10.5C16.9582 10.8452 16.6784 11.125 16.3332 11.125H4.6665C4.32132 11.125 4.0415 10.8452 4.0415 10.5C4.0415 10.1548 4.32132 9.875 4.6665 9.875H16.3332C16.6784 9.875 16.9582 10.1548 16.9582 10.5Z" fill="#5C5C7B"/>
<path fill-rule="evenodd" clip-rule="evenodd" d="M14.4582 14.6665C14.4582 15.0117 14.1784 15.2915 13.8332 15.2915H7.1665C6.82132 15.2915 6.5415 15.0117 6.5415 14.6665C6.5415 14.3213 6.82132 14.0415 7.1665 14.0415H13.8332C14.1784 14.0415 14.4582 14.3213 14.4582 14.6665Z" fill="#5C5C7B"/>
</svg>
