<svg width="20" height="20" viewBox="0 0 20 20" fill="none" xmlns="http://www.w3.org/2000/svg">
<path fill-rule="evenodd" clip-rule="evenodd" d="M9.9998 1.0415C7.8137 1.0415 6.0415 2.81371 6.0415 4.99984C6.0415 7.18596 7.8137 8.95817 9.9998 8.95817C12.186 8.95817 13.9582 7.18596 13.9582 4.99984C13.9582 2.81371 12.186 1.0415 9.9998 1.0415ZM7.2915 4.99984C7.2915 3.50407 8.50406 2.2915 9.9998 2.2915C11.4956 2.2915 12.7082 3.50407 12.7082 4.99984C12.7082 6.49561 11.4956 7.70817 9.9998 7.70817C8.50406 7.70817 7.2915 6.49561 7.2915 4.99984Z" fill="#2DC059"/>
<path fill-rule="evenodd" clip-rule="evenodd" d="M10.0002 10.208C8.07231 10.208 6.29604 10.6462 4.97981 11.3866C3.68317 12.1159 2.7086 13.2214 2.7086 14.583L2.70855 14.6679C2.70761 15.6361 2.70643 16.8513 3.77228 17.7193C4.29684 18.1464 5.03067 18.4502 6.02211 18.6509C7.01632 18.8521 8.31213 18.958 10.0002 18.958C11.6884 18.958 12.9842 18.8521 13.9784 18.6509C14.9698 18.4502 15.7037 18.1464 16.2282 17.7193C17.2941 16.8513 17.2929 15.6361 17.292 14.6679L17.2919 14.583C17.2919 13.2214 16.3173 12.1159 15.0207 11.3866C13.7045 10.6462 11.9282 10.208 10.0002 10.208ZM3.9586 14.583C3.9586 13.8735 4.47642 13.1039 5.59264 12.4761C6.68927 11.8592 8.24633 11.458 10.0002 11.458C11.7542 11.458 13.3112 11.8592 14.4079 12.4761C15.5241 13.1039 16.0419 13.8735 16.0419 14.583C16.0419 15.6728 16.0083 16.2863 15.4389 16.75C15.1301 17.0014 14.614 17.2469 13.7304 17.4257C12.8496 17.604 11.6454 17.708 10.0002 17.708C8.35508 17.708 7.15089 17.604 6.2701 17.4257C5.38654 17.2469 4.87037 17.0014 4.56159 16.75C3.9922 16.2863 3.9586 15.6728 3.9586 14.583Z" fill="#2DC059"/>
</svg>
