<svg width="26" height="25" viewBox="0 0 26 25" fill="none" xmlns="http://www.w3.org/2000/svg">
<g clip-path="url(#clip0_53_138)">
<mask id="mask0_53_138" style="mask-type:luminance" maskUnits="userSpaceOnUse" x="1" y="0" width="24" height="25">
<path d="M25 0.5H1V24.5H25V0.5Z" fill="white"/>
</mask>
<g mask="url(#mask0_53_138)">
<path d="M24.766 12.7762C24.766 11.9605 24.6999 11.1404 24.5588 10.3379H13.24V14.9589H19.7217C19.4528 16.4492 18.5885 17.7676 17.323 18.6054V21.6037H21.19C23.4608 19.5137 24.766 16.4272 24.766 12.7762Z" fill="#4285F4"/>
<path d="M13.2401 24.5008C16.4766 24.5008 19.2059 23.4382 21.1945 21.6039L17.3276 18.6055C16.2517 19.3375 14.8627 19.752 13.2445 19.752C10.1139 19.752 7.45946 17.6399 6.50705 14.8003H2.5166V17.8912C4.55371 21.9434 8.7029 24.5008 13.2401 24.5008Z" fill="#34A853"/>
<path d="M6.50253 14.8002C5.99987 13.3098 5.99987 11.696 6.50253 10.2057V7.11475H2.51649C0.81449 10.5055 0.81449 14.5003 2.51649 17.8911L6.50253 14.8002Z" fill="#FBBC04"/>
<path d="M13.2401 5.24966C14.9509 5.2232 16.6044 5.86697 17.8434 7.04867L21.2695 3.62262C19.1001 1.5855 16.2208 0.465534 13.2401 0.500809C8.7029 0.500809 4.55371 3.05822 2.5166 7.11481L6.50264 10.2058C7.45064 7.36173 10.1095 5.24966 13.2401 5.24966Z" fill="#EA4335"/>
</g>
</g>
<defs>
<clipPath id="clip0_53_138">
<rect width="25" height="24" fill="white" transform="translate(0.5 0.5)"/>
</clipPath>
</defs>
</svg>
