<svg width="21" height="21" viewBox="0 0 21 21" fill="none" xmlns="http://www.w3.org/2000/svg">
<g clip-path="url(#clip0_53_195)">
<mask id="mask0_53_195" style="mask-type:luminance" maskUnits="userSpaceOnUse" x="0" y="0" width="21" height="21">
<path d="M20.5 0.5H0.5V20.5H20.5V0.5Z" fill="white"/>
</mask>
<g mask="url(#mask0_53_195)">
<path d="M2.16699 10.4998C2.16699 6.57147 2.16699 4.60728 3.38738 3.38689C4.60776 2.1665 6.57195 2.1665 10.5003 2.1665C14.4287 2.1665 16.3928 2.1665 17.6132 3.38689C18.8336 4.60728 18.8336 6.57147 18.8336 10.4998C18.8336 14.4282 18.8336 16.3924 17.6132 17.6128C16.3928 18.8332 14.4287 18.8332 10.5003 18.8332C6.57195 18.8332 4.60776 18.8332 3.38738 17.6128C2.16699 16.3924 2.16699 14.4282 2.16699 10.4998Z" stroke="#2DC059" stroke-width="1.5"/>
<path d="M13.8337 8.83334C14.7541 8.83334 15.5003 8.08715 15.5003 7.16667C15.5003 6.24619 14.7541 5.5 13.8337 5.5C12.9132 5.5 12.167 6.24619 12.167 7.16667C12.167 8.08715 12.9132 8.83334 13.8337 8.83334Z" stroke="#2DC059" stroke-width="1.5"/>
<path d="M2.16699 10.9169L3.62664 9.63976C4.38604 8.97529 5.53055 9.0134 6.24406 9.72691L9.81883 13.3017C10.3915 13.8744 11.293 13.9525 11.9556 13.4868L12.2041 13.3121C13.1576 12.642 14.4477 12.7196 15.314 13.4993L18.0003 15.9169" stroke="#2DC059" stroke-width="1.5" stroke-linecap="round"/>
</g>
</g>
<defs>
<clipPath id="clip0_53_195">
<rect width="20" height="20" fill="white" transform="translate(0.5 0.5)"/>
</clipPath>
</defs>
</svg>
